<?xml version="1.0" encoding="UTF-8" standalone="no"?>
<!DOCTYPE svg PUBLIC "-//W3C//DTD SVG 1.1//EN" "http://www.w3.org/Graphics/SVG/1.1/DTD/svg11.dtd">
<svg width="100%" height="100%" viewBox="0 0 128 128" version="1.1" xmlns="http://www.w3.org/2000/svg" xmlns:xlink="http://www.w3.org/1999/xlink" xml:space="preserve" xmlns:serif="http://www.serif.com/" style="fill-rule:evenodd;clip-rule:evenodd;stroke-linejoin:round;stroke-miterlimit:2;">
    <g transform="matrix(0.395522,0,0,0.39552,9.99611,-60.5455)">
        <path d="M121.034,340.09C120.575,340.409 120.107,340.829 119.631,341.348C118.397,342.694 117.781,344.487 117.781,346.73C117.781,348.972 118.79,350.878 120.808,352.447C122.826,354.017 126.582,355.474 132.075,356.82C137.569,358.053 145.585,359.286 156.123,360.52C173.837,362.538 187.627,365.34 197.493,368.928C207.471,372.403 214.422,377.056 218.345,382.886C222.381,388.716 224.4,396.059 224.4,404.916C224.4,421.06 216.944,434.177 202.033,444.267C187.122,454.357 165.877,459.402 138.297,459.402C117.332,459.402 100.516,457.945 87.847,455.03C75.178,452.227 65.985,448.247 60.267,443.09C54.662,437.933 51.859,431.935 51.859,425.096C51.859,415.679 55.222,408.728 61.949,404.243C67.697,400.568 76.533,397.923 88.458,396.308C83.108,394.219 79.037,391.651 76.243,388.604C72.544,384.68 70.694,379.354 70.694,372.628C70.694,366.461 72.375,360.968 75.739,356.147C79.102,351.326 84.596,347.402 92.219,344.375C98.081,341.962 105.467,340.211 114.377,339.123C107.02,337.833 100.25,335.885 94.069,333.276C81.961,328.119 72.6,321.336 65.985,312.928C59.483,304.407 56.231,295.158 56.231,285.18C56.231,273.408 59.539,262.87 66.153,253.564C72.88,244.147 82.409,236.692 94.742,231.198C107.074,225.705 121.705,222.958 138.634,222.958C146.98,222.958 154.669,223.672 161.703,225.1C165.785,213.482 171.1,204.023 177.649,196.724C184.6,189.1 193.513,185.288 204.387,185.288C213.693,185.288 220.644,187.867 225.24,193.024C229.837,198.181 232.135,204.908 232.135,213.204C232.135,220.491 230.229,226.209 226.418,230.357C222.718,234.393 217.392,236.411 210.442,236.411C206.293,236.411 202.818,235.29 200.015,233.048C197.212,230.694 194.69,228.003 192.448,224.976C190.205,221.949 187.907,219.314 185.553,217.072C183.31,214.718 180.62,213.54 177.481,213.54C174.005,213.54 171.146,214.886 168.904,217.576C167.215,219.518 165.717,222.224 164.41,225.693C170.117,227.034 175.371,228.869 180.171,231.198C191.607,236.692 200.239,243.811 206.069,252.555C212.011,261.3 214.982,270.606 214.982,280.471C214.982,291.795 211.619,302.053 204.892,311.246C198.165,320.327 188.972,327.559 177.312,332.94C165.653,338.321 152.423,341.012 137.625,341.012C131.821,341.012 126.291,340.705 121.034,340.09ZM94.971,398.445C94.727,399.09 94.482,399.901 94.237,400.88C93.789,402.674 93.565,404.692 93.565,406.934C93.565,421.509 97.545,433.168 105.505,441.913C113.577,450.658 125.068,455.03 139.979,455.03C148.051,455.03 154.722,454.245 159.991,452.676C165.372,451.218 169.352,448.808 171.931,445.444C174.622,442.081 175.967,437.653 175.967,432.159C175.967,427.338 174.566,423.19 171.763,419.715C168.96,416.239 163.971,413.268 156.796,410.802C149.621,408.447 139.531,406.373 126.526,404.58C113.561,402.743 103.042,400.698 94.971,398.445ZM127.198,227.33C123.947,227.779 121.312,230.301 119.294,234.898C117.276,239.382 116.043,245.773 115.595,254.069C115.258,262.365 115.875,272.287 117.444,283.835C119.126,295.494 121.256,305.304 123.835,313.264C126.526,321.112 129.497,326.998 132.748,330.922C135.999,334.734 139.194,336.415 142.333,335.967C147.042,335.294 150.405,330.081 152.423,320.327C154.554,310.461 154.385,296.728 151.919,279.126C149.453,261.749 145.865,248.632 141.156,239.775C136.448,230.806 131.795,226.658 127.198,227.33Z"/>
    </g>
</svg>
