<?xml version="1.0" encoding="UTF-8" standalone="no"?>
<!DOCTYPE svg PUBLIC "-//W3C//DTD SVG 1.1//EN" "http://www.w3.org/Graphics/SVG/1.1/DTD/svg11.dtd">
<svg width="100%" height="100%" viewBox="0 0 81 81" version="1.1" xmlns="http://www.w3.org/2000/svg" xmlns:xlink="http://www.w3.org/1999/xlink" xml:space="preserve" xmlns:serif="http://www.serif.com/" style="fill-rule:evenodd;clip-rule:evenodd;stroke-linejoin:round;stroke-miterlimit:2;">
    <g transform="matrix(1,0,0,1,-517,-613)">
        <g id="ai" transform="matrix(0.789591,0,0,0.891647,483.187,447.635)">
            <rect x="43.855" y="186.286" width="101.318" height="89.722" style="fill:none;"/>
            <clipPath id="_clip1">
                <rect x="43.855" y="186.286" width="101.318" height="89.722"/>
            </clipPath>
            <g clip-path="url(#_clip1)">
                <g transform="matrix(2.41234,0,0,2.13623,-4481.32,179.877)">
                    <g transform="matrix(1,0,0,1,1872.84,0)">
                        <path d="M3,18.2C3,12.88 3,10.219 4.035,8.187C4.946,6.4 6.4,4.946 8.187,4.035C10.219,3 12.88,3 18.2,3L29.8,3C35.121,3 37.781,3 39.813,4.035C41.6,4.946 43.054,6.4 43.965,8.187C45,10.219 45,12.88 45,18.2L45,29.8C45,35.121 45,37.781 43.965,39.813C43.054,41.6 41.6,43.054 39.813,43.965C37.781,45 35.121,45 29.8,45L18.2,45C12.88,45 10.219,45 8.187,43.965C6.4,43.054 4.946,41.6 4.035,39.813C3,37.781 3,35.121 3,29.8L3,18.2Z" style="fill:rgb(18,18,18);fill-rule:nonzero;"/>
                    </g>
                    <g transform="matrix(1,0,0,1,1872.84,0)">
                        <path d="M23.353,29.394L16.844,29.394L15.52,33.613C15.483,33.77 15.339,33.881 15.182,33.874L11.885,33.874C11.697,33.874 11.632,33.768 11.688,33.556L17.323,16.911C17.38,16.737 17.436,16.54 17.492,16.318C17.566,15.933 17.604,15.541 17.605,15.148C17.589,15.032 17.691,14.929 17.802,14.946L22.282,14.946C22.413,14.946 22.488,14.994 22.507,15.09L28.903,33.585C28.959,33.777 28.903,33.874 28.734,33.874L25.071,33.874C24.943,33.888 24.82,33.8 24.79,33.671L23.353,29.394ZM17.859,25.753L22.31,25.753C21.579,23.254 20.753,20.788 20.084,18.269C19.363,20.792 18.575,23.305 17.859,25.753Z" style="fill:rgb(242,242,242);fill-rule:nonzero;"/>
                    </g>
                    <g transform="matrix(1,0,0,1,1872.84,0)">
                        <path d="M32.706,18.009C32.419,18.021 32.132,17.97 31.865,17.86C31.598,17.751 31.357,17.585 31.157,17.373C30.957,17.152 30.802,16.893 30.701,16.61C30.599,16.327 30.553,16.027 30.565,15.726C30.555,15.428 30.606,15.131 30.715,14.855C30.824,14.578 30.989,14.329 31.199,14.122C31.407,13.918 31.652,13.757 31.92,13.651C32.189,13.544 32.475,13.493 32.763,13.501C33.439,13.501 33.97,13.708 34.355,14.122C34.549,14.337 34.7,14.59 34.799,14.865C34.898,15.14 34.943,15.433 34.932,15.726C34.944,16.028 34.896,16.33 34.792,16.613C34.688,16.895 34.53,17.154 34.326,17.373C34.114,17.588 33.86,17.755 33.581,17.865C33.303,17.974 33.005,18.023 32.706,18.009ZM30.762,33.584L30.762,19.771C30.762,19.598 30.837,19.511 30.988,19.511L34.453,19.511C34.603,19.511 34.679,19.598 34.679,19.771L34.679,33.584C34.679,33.777 34.603,33.874 34.453,33.873L31.016,33.873C30.847,33.873 30.762,33.777 30.762,33.584Z" style="fill:rgb(242,242,242);fill-rule:nonzero;"/>
                    </g>
                </g>
            </g>
        </g>
    </g>
</svg>
