<?xml version="1.0" encoding="UTF-8" standalone="no"?>
<!DOCTYPE svg PUBLIC "-//W3C//DTD SVG 1.1//EN" "http://www.w3.org/Graphics/SVG/1.1/DTD/svg11.dtd">
<svg width="100%" height="100%" viewBox="0 0 262 58" version="1.1" xmlns="http://www.w3.org/2000/svg" xmlns:xlink="http://www.w3.org/1999/xlink" xml:space="preserve" xmlns:serif="http://www.serif.com/" style="fill-rule:evenodd;clip-rule:evenodd;stroke-linejoin:round;stroke-miterlimit:2;">
    <g transform="matrix(1,0,0,1,-206,-326)">
        <g id="avada" transform="matrix(0.899327,0,0,0.517007,319.601,403.353)">
            <rect x="-125.48" y="-147.871" width="289.917" height="109.863" style="fill:none;"/>
            <g id="avada-logo-svg.svg" transform="matrix(1.22065,0,0,2.12331,19.1674,-93.8661)">
                <g transform="matrix(1,0,0,1,-118.5,-26)">
                    <clipPath id="_clip1">
                        <rect x="0" y="0" width="237" height="52"/>
                    </clipPath>
                    <g clip-path="url(#_clip1)">
                        <g>
                            <clipPath id="_clip2">
                                <rect x="0.5" y="0.865" width="51.136" height="51.136"/>
                            </clipPath>
                            <g clip-path="url(#_clip2)">
                                <path d="M0.612,50.489C0.257,51.199 0.794,51.991 1.596,51.991C24.262,52.031 41.176,30.116 28.757,5.146L26.91,1.443C26.525,0.672 25.439,0.672 25.054,1.443L0.612,50.489Z" style="fill:rgb(18,18,18);fill-rule:nonzero;"/>
                                <path d="M40.1,27.924C39.714,27.153 38.619,27.153 38.243,27.924L32.622,38.902C29.599,44.949 33.404,52.011 40.689,52.011L50.601,52.011C51.372,52.011 51.88,51.199 51.535,50.509L40.1,27.924Z" style="fill:rgb(18,18,18);fill-rule:nonzero;"/>
                            </g>
                        </g>
                        <path d="M104.76,39.917L104.4,39.751C104.246,39.862 103.835,40.138 103.27,40.138C102.192,40.138 101.729,39.365 100.856,37.209L89.453,9.026L85.19,9.026L70.808,44.946L76.766,44.946L79.54,37.651L94.949,37.651L95.206,38.37C96.233,41.243 97.261,43.178 98.545,44.283C99.521,45.112 100.702,45.609 102.192,45.609C103.527,45.609 104.708,45.222 105.53,44.67L105.736,44.228L104.76,39.917ZM81.338,33.009L87.245,17.425L93.152,33.009L81.338,33.009Z" style="fill:rgb(18,18,18);fill-rule:nonzero;"/>
                        <path d="M104.406,16.652C103.019,16.652 101.992,17.039 101.376,17.481L101.17,17.923L102.044,22.123L102.403,22.289C102.763,21.957 103.276,21.846 103.687,21.902C104.509,21.957 105.177,22.841 106.05,25.107L113.754,44.946L117.966,44.946L128.547,17.702L128.342,17.315L123.308,17.315L115.86,37.43L110.621,22.731C109.286,18.752 107.539,16.652 104.406,16.652Z" style="fill:rgb(18,18,18);fill-rule:nonzero;"/>
                        <path d="M155.812,40.193L155.453,40.028C155.247,40.193 154.991,40.359 154.631,40.359C153.707,40.359 153.45,39.42 153.45,37.928L153.45,27.262C153.45,19.304 147.132,16.652 141.585,16.652C137.167,16.652 133.623,18.365 130.85,21.238L130.85,21.681L133.675,24.554L134.086,24.554C135.883,22.675 138.143,21.349 141.071,21.349C144.615,21.349 147.954,23.283 147.954,27.262L147.954,28.809C146.105,28.091 143.947,27.538 141.174,27.538C134.856,27.538 129.72,30.357 129.72,36.491C129.72,42.459 134.599,45.609 139.89,45.609C143.28,45.609 146.464,44.283 148.673,42.017C149.341,44.283 151.036,45.609 153.347,45.609C154.631,45.609 155.71,45.222 156.429,44.67L156.634,44.283L155.812,40.193ZM147.954,34.944C147.954,38.812 144.564,41.188 141.02,41.188C138.092,41.188 135.318,39.641 135.318,36.491C135.318,33.507 137.835,31.628 141.893,31.628C144.41,31.628 146.618,32.346 147.954,32.899L147.954,34.944Z" style="fill:rgb(18,18,18);fill-rule:nonzero;"/>
                        <path d="M187.719,40.193L187.36,40.028C187.154,40.193 186.897,40.359 186.538,40.359C185.613,40.359 185.357,39.42 185.357,37.928L185.357,7.533L184.997,7.257L179.809,8.086L179.809,20.023C177.601,17.978 174.724,16.652 171.334,16.652C163.784,16.652 158.442,23.007 158.442,31.13C158.442,39.199 163.732,45.609 171.386,45.609C175.187,45.609 178.268,44.062 180.477,41.63C181.093,44.117 182.788,45.609 185.254,45.609C186.538,45.609 187.617,45.222 188.336,44.67L188.541,44.283L187.719,40.193ZM172.259,40.359C167.277,40.359 164.143,36.215 164.143,31.13C164.143,26.046 167.277,21.902 172.259,21.902C176.625,21.902 180.272,25.052 180.272,31.13C180.272,37.154 176.676,40.359 172.259,40.359Z" style="fill:rgb(18,18,18);fill-rule:nonzero;"/>
                        <path d="M216.751,40.193L216.391,40.028C216.186,40.193 215.929,40.359 215.57,40.359C214.645,40.359 214.388,39.42 214.388,37.928L214.388,27.262C214.388,19.304 208.071,16.652 202.523,16.652C198.106,16.652 194.562,18.365 191.788,21.238L191.788,21.681L194.613,24.554L195.024,24.554C196.822,22.675 199.082,21.349 202.01,21.349C205.554,21.349 208.892,23.283 208.892,27.262L208.892,28.809C207.043,28.091 204.886,27.538 202.112,27.538C195.795,27.538 190.658,30.357 190.658,36.491C190.658,42.459 195.538,45.609 200.828,45.609C204.218,45.609 207.403,44.283 209.611,42.017C210.279,44.283 211.974,45.609 214.286,45.609C215.57,45.609 216.648,45.222 217.367,44.67L217.573,44.283L216.751,40.193ZM208.892,34.944C208.892,38.812 205.502,41.188 201.958,41.188C199.031,41.188 196.257,39.641 196.257,36.491C196.257,33.507 198.774,31.628 202.831,31.628C205.348,31.628 207.557,32.346 208.892,32.899L208.892,34.944Z" style="fill:rgb(18,18,18);fill-rule:nonzero;"/>
                        <circle cx="232.206" cy="40.815" r="4.794" style="fill:rgb(18,18,18);"/>
                        <circle cx="232.206" cy="21.639" r="4.794" style="fill:rgb(18,18,18);"/>
                    </g>
                </g>
            </g>
        </g>
    </g>
</svg>
