<?xml version="1.0" encoding="UTF-8" standalone="no"?>
<!DOCTYPE svg PUBLIC "-//W3C//DTD SVG 1.1//EN" "http://www.w3.org/Graphics/SVG/1.1/DTD/svg11.dtd">
<svg width="100%" height="100%" viewBox="0 0 491 80" version="1.1" xmlns="http://www.w3.org/2000/svg" xmlns:xlink="http://www.w3.org/1999/xlink" xml:space="preserve" xmlns:serif="http://www.serif.com/" style="fill-rule:evenodd;clip-rule:evenodd;stroke-linejoin:round;stroke-miterlimit:2;">
    <g transform="matrix(1,0,0,1,-206,0)">
        <g id="elementor" transform="matrix(1.69069,0,0,0.728178,418.901,107.677)">
            <rect x="-125.48" y="-147.871" width="289.917" height="109.863" style="fill:none;"/>
            <g id="Elementor-Logo---Full-Black.svg" serif:id="Elementor Logo - Full Black.svg" transform="matrix(0.362883,0,0,0.842546,19.3995,-92.3937)">
                <g transform="matrix(1,0,0,1,-400.5,-80)">
                    <g>
                        <clipPath id="_clip1">
                            <rect x="2.258" y="16.049" width="795.828" height="127.901"/>
                        </clipPath>
                        <g clip-path="url(#_clip1)">
                            <path d="M505.95,73.979C505.95,73.979 499.077,75.622 493.262,77.009L484.423,79.024L484.342,79.024C484.342,76.636 484.516,74.119 485.086,71.801C485.819,68.83 487.424,65.357 490.215,63.831C493.25,62.177 496.949,61.979 500.159,63.26C503.485,64.577 505.008,67.793 505.66,71.125C505.846,72.057 505.962,72.989 506.055,73.933L505.95,73.979ZM529.001,79.024C529.001,55.92 514.475,45.993 495.914,45.993C474.933,45.993 461.791,60.545 461.791,79.141C461.791,99.356 472.979,112.521 497.065,112.521C510.091,112.521 517.464,110.215 526.233,105.822L522.895,90.687C516.208,93.693 509.986,95.534 501.682,95.534C492.576,95.534 487.389,92.074 485.423,85.607L528.42,85.607C528.768,83.871 529.001,81.902 529.001,79.024Z" style="fill:rgb(18,18,18);fill-rule:nonzero;"/>
                            <path d="M312.998,73.979C312.998,73.979 306.124,75.622 300.309,77.009L291.471,79.024L291.389,79.024C291.389,76.636 291.564,74.119 292.133,71.801C292.866,68.83 294.471,65.357 297.262,63.831C300.298,62.177 303.996,61.979 307.206,63.26C310.532,64.577 312.056,67.793 312.707,71.125C312.893,72.057 313.009,72.989 313.102,73.933L312.998,73.979ZM336.048,79.024C336.048,55.92 321.522,45.993 302.961,45.993C281.981,45.993 268.839,60.545 268.839,79.141C268.839,99.356 280.027,112.521 304.112,112.521C317.138,112.521 324.511,110.215 333.28,105.822L329.943,90.687C323.255,93.693 317.033,95.534 308.729,95.534C299.623,95.534 294.436,92.074 292.471,85.607L335.467,85.607C335.816,83.871 336.048,81.902 336.048,79.024Z" style="fill:rgb(18,18,18);fill-rule:nonzero;"/>
                            <rect x="238.519" y="29.017" width="21.295" height="81.186" style="fill:rgb(18,18,18);fill-rule:nonzero;"/>
                            <path d="M533.49,48.067L555.854,48.067L560.564,62.421C563.507,55.337 570.136,46.226 581.894,46.226C598.036,46.226 606.793,54.429 606.793,75.564L606.793,110.215L584.429,110.215C584.429,102.991 584.441,95.779 584.452,88.555C584.452,85.246 584.394,81.937 584.441,78.628C584.475,75.576 584.696,72.418 583.068,69.68C581.963,67.828 580.161,66.464 578.219,65.532C574.276,63.645 569.996,63.691 566.123,65.719C565.17,66.22 560.564,68.713 560.564,69.866L560.564,110.215L538.2,110.215L538.2,64.833L533.49,48.067Z" style="fill:rgb(18,18,18);fill-rule:nonzero;"/>
                            <path d="M623.704,64.355L613.446,64.355L613.446,48.067L623.704,48.067L623.704,37.884L646.068,32.606L646.068,48.067L668.549,48.067L668.549,64.355L646.068,64.355L646.068,82.601C646.068,89.767 649.523,93.111 654.71,93.111C660.013,93.111 663.013,92.412 667.502,90.92L670.154,107.779C664.048,110.436 656.442,111.706 648.708,111.706C632.45,111.706 623.692,103.969 623.692,88.951L623.692,64.355L623.704,64.355Z" style="fill:rgb(18,18,18);fill-rule:nonzero;"/>
                            <path d="M710.394,94.031C718.581,94.031 723.419,88.136 723.419,78.675C723.419,69.214 718.814,63.773 710.743,63.773C702.555,63.773 697.834,69.202 697.834,79.013C697.834,88.264 702.439,94.031 710.394,94.031ZM710.627,45.644C731.607,45.644 746.935,58.81 746.935,79.246C746.935,99.798 731.607,112.16 710.394,112.16C689.297,112.16 674.306,99.461 674.306,79.246C674.306,58.81 689.181,45.644 710.627,45.644Z" style="fill:rgb(18,18,18);fill-rule:nonzero;"/>
                            <path d="M441.754,47.881C437.8,46.25 433.322,45.644 429.042,46.261C426.867,46.576 424.739,47.205 422.762,48.184C417.342,50.864 413.121,56.98 410.853,62.433C409.364,56.153 405.026,50.514 398.688,47.892C394.734,46.261 390.256,45.655 385.976,46.273C383.802,46.588 381.673,47.217 379.696,48.195C374.288,50.864 370.078,56.957 367.799,62.398L367.799,62.002L363.24,48.091L340.875,48.091L345.586,64.857L345.586,110.226L367.799,110.226L367.799,69.669C367.88,69.366 368.869,68.806 369.043,68.678C371.648,66.826 374.707,64.915 377.963,64.682C381.29,64.437 384.569,66.126 386.546,68.771C386.756,69.063 386.953,69.354 387.139,69.657C388.768,72.395 388.547,75.552 388.512,78.605C388.477,81.914 388.523,85.223 388.523,88.532C388.512,95.756 388.5,102.968 388.5,110.191L410.865,110.191L410.865,69.692C410.911,69.4 411.935,68.818 412.121,68.69C414.726,66.837 417.784,64.927 421.041,64.693C424.367,64.449 427.647,66.138 429.624,68.783C429.833,69.074 430.031,69.366 430.217,69.669C431.845,72.406 431.624,75.564 431.589,78.617C431.554,81.926 431.601,85.235 431.601,88.543C431.589,95.767 431.578,102.979 431.578,110.203L453.942,110.203L453.942,75.552C453.942,65.393 452.488,52.308 441.754,47.881Z" style="fill:rgb(18,18,18);fill-rule:nonzero;"/>
                            <path d="M799.827,46.226C788.069,46.226 781.452,55.349 778.498,62.421L773.787,48.067L751.423,48.067L756.133,64.833L756.133,110.203L778.498,110.203L778.498,68.282C781.684,67.723 798.978,70.915 802.258,72.115L802.258,46.308C801.467,46.261 800.664,46.226 799.827,46.226Z" style="fill:rgb(18,18,18);fill-rule:nonzero;"/>
                            <path d="M206.444,73.979C206.444,73.979 199.571,75.622 193.756,77.009L184.917,79.024L184.836,79.024C184.836,76.636 185.01,74.119 185.58,71.801C186.313,68.83 187.918,65.357 190.709,63.831C193.744,62.177 197.443,61.979 200.653,63.26C203.979,64.577 205.502,67.793 206.154,71.125C206.34,72.057 206.456,72.989 206.549,73.933L206.444,73.979ZM229.495,79.024C229.495,55.92 214.969,45.993 196.408,45.993C175.427,45.993 162.285,60.545 162.285,79.141C162.285,99.356 173.473,112.521 197.559,112.521C210.585,112.521 217.958,110.215 226.727,105.822L223.389,90.687C216.702,93.693 210.48,95.534 202.176,95.534C193.07,95.534 187.883,92.074 185.917,85.607L228.913,85.607C229.262,83.871 229.495,81.902 229.495,79.024Z" style="fill:rgb(18,18,18);fill-rule:nonzero;"/>
                            <path d="M66.141,16.049C30.856,16.049 2.258,44.7 2.258,80.05C2.258,115.388 30.856,144.05 66.141,144.05C101.426,144.05 130.024,115.399 130.024,80.05C130.013,44.7 101.415,16.049 66.141,16.049ZM50.173,106.707L39.532,106.707L39.532,53.38L50.173,53.38L50.173,106.707ZM92.75,106.707L60.815,106.707L60.815,96.047L92.75,96.047L92.75,106.707ZM92.75,85.374L60.815,85.374L60.815,74.713L92.75,74.713L92.75,85.374ZM92.75,64.041L60.815,64.041L60.815,53.38L92.75,53.38L92.75,64.041Z" style="fill:rgb(18,18,18);fill-rule:nonzero;"/>
                        </g>
                    </g>
                </g>
            </g>
        </g>
    </g>
</svg>
