<?xml version="1.0" encoding="UTF-8" standalone="no"?>
<!DOCTYPE svg PUBLIC "-//W3C//DTD SVG 1.1//EN" "http://www.w3.org/Graphics/SVG/1.1/DTD/svg11.dtd">
<svg width="100%" height="100%" viewBox="0 0 55 81" version="1.1" xmlns="http://www.w3.org/2000/svg" xmlns:xlink="http://www.w3.org/1999/xlink" xml:space="preserve" xmlns:serif="http://www.serif.com/" style="fill-rule:evenodd;clip-rule:evenodd;stroke-linejoin:round;stroke-miterlimit:2;">
    <g transform="matrix(1,0,0,1,-718,-613)">
        <g id="figma" transform="matrix(0.530507,0,0,0.891647,695.715,447.635)">
            <rect x="43.855" y="186.286" width="101.318" height="89.722" style="fill:none;"/>
            <clipPath id="_clip1">
                <rect x="43.855" y="186.286" width="101.318" height="89.722"/>
            </clipPath>
            <g clip-path="url(#_clip1)">
                <g transform="matrix(4.18886,0,0,2.49227,-7851.1,171.332)">
                    <g transform="matrix(1,0,0,1,1872.84,0)">
                        <path d="M24,24C24,20.686 26.686,18 30,18C33.314,18 36,20.686 36,24C36,27.314 33.314,30 30,30C26.686,30 24,27.314 24,24Z" style="fill:rgb(194,194,194);"/>
                    </g>
                    <g transform="matrix(1,0,0,1,1872.84,0)">
                        <path d="M12,36C12,32.686 14.686,30 18,30L24,30L24,36C24,39.314 21.314,42 18,42C14.686,42 12,39.314 12,36Z" style="fill:rgb(18,18,18);"/>
                    </g>
                    <g transform="matrix(1,0,0,1,1872.84,0)">
                        <path d="M24,6L24,18L30,18C33.314,18 36,15.314 36,12C36,8.686 33.314,6 30,6L24,6Z" style="fill:rgb(85,85,85);"/>
                    </g>
                    <g transform="matrix(1,0,0,1,1872.84,0)">
                        <path d="M12,12C12,15.314 14.686,18 18,18L24,18L24,6L18,6C14.686,6 12,8.686 12,12Z" style="fill:rgb(18,18,18);"/>
                    </g>
                    <g transform="matrix(1,0,0,1,1872.84,0)">
                        <path d="M12,24C12,27.314 14.686,30 18,30L24,30L24,18L18,18C14.686,18 12,20.686 12,24Z" style="fill:rgb(85,85,85);"/>
                    </g>
                </g>
            </g>
        </g>
    </g>
</svg>
