<?xml version="1.0" encoding="UTF-8" standalone="no"?>
<!DOCTYPE svg PUBLIC "-//W3C//DTD SVG 1.1//EN" "http://www.w3.org/Graphics/SVG/1.1/DTD/svg11.dtd">
<svg width="100%" height="100%" viewBox="0 0 81 81" version="1.1" xmlns="http://www.w3.org/2000/svg" xmlns:xlink="http://www.w3.org/1999/xlink" xml:space="preserve" xmlns:serif="http://www.serif.com/" style="fill-rule:evenodd;clip-rule:evenodd;stroke-linejoin:round;stroke-miterlimit:2;">
    <g transform="matrix(1,0,0,1,-622,-613)">
        <g id="id" transform="matrix(0.789591,0,0,0.891647,587.495,447.635)">
            <rect x="43.855" y="186.286" width="101.318" height="89.722" style="fill:none;"/>
            <clipPath id="_clip1">
                <rect x="43.855" y="186.286" width="101.318" height="89.722"/>
            </clipPath>
            <g clip-path="url(#_clip1)">
                <g transform="matrix(2.41234,0,0,2.13623,-4481.32,179.877)">
                    <g transform="matrix(1,0,0,1,1872.84,0)">
                        <path d="M3,18.2C3,12.88 3,10.219 4.035,8.187C4.946,6.4 6.4,4.946 8.187,4.035C10.219,3 12.88,3 18.2,3L29.8,3C35.121,3 37.781,3 39.813,4.035C41.6,4.946 43.054,6.4 43.965,8.187C45,10.219 45,12.88 45,18.2L45,29.8C45,35.121 45,37.781 43.965,39.813C43.054,41.6 41.6,43.054 39.813,43.965C37.781,45 35.121,45 29.8,45L18.2,45C12.88,45 10.219,45 8.187,43.965C6.4,43.054 4.946,41.6 4.035,39.813C3,37.781 3,35.121 3,29.8L3,18.2Z" style="fill:rgb(18,18,18);fill-rule:nonzero;"/>
                    </g>
                    <g transform="matrix(1,0,0,1,1872.84,0)">
                        <path d="M17.388,15.293L17.388,33.701C17.388,33.894 17.304,33.99 17.135,33.99L13.725,33.99C13.575,33.99 13.5,33.894 13.5,33.701L13.5,15.293C13.5,15.139 13.585,15.062 13.754,15.062L17.163,15.062C17.292,15.043 17.407,15.161 17.388,15.293Z" style="fill:rgb(242,242,242);fill-rule:nonzero;"/>
                    </g>
                    <g transform="matrix(1,0,0,1,1872.84,0)">
                        <path d="M27.475,34.279C26.178,34.299 24.893,34.023 23.713,33.47C21.209,32.281 20.121,29.65 20.121,26.939C20.1,24.235 21.532,21.658 23.868,20.379C25.481,19.463 27.379,19.23 29.194,19.397L29.194,13.704C29.194,13.569 29.25,13.502 29.363,13.502L32.913,13.502C33.01,13.487 33.096,13.575 33.082,13.675L33.082,30.753C33.082,31.458 33.152,32.16 33.194,32.863C33.201,32.983 33.132,33.102 33.025,33.152C32.109,33.544 31.156,33.834 30.18,34.019C29.287,34.188 28.382,34.275 27.475,34.279ZM29.194,30.696L29.194,22.807C26.632,22.095 24.122,24.051 24.122,26.765C24.06,29.609 26.595,31.475 29.194,30.696Z" style="fill:rgb(242,242,242);fill-rule:nonzero;"/>
                    </g>
                </g>
            </g>
        </g>
    </g>
</svg>
