<?xml version="1.0" encoding="UTF-8" standalone="no"?>
<!DOCTYPE svg PUBLIC "-//W3C//DTD SVG 1.1//EN" "http://www.w3.org/Graphics/SVG/1.1/DTD/svg11.dtd">
<svg width="100%" height="100%" viewBox="0 0 81 81" version="1.1" xmlns="http://www.w3.org/2000/svg" xmlns:xlink="http://www.w3.org/1999/xlink" xml:space="preserve" xmlns:serif="http://www.serif.com/" style="fill-rule:evenodd;clip-rule:evenodd;stroke-linejoin:round;stroke-miterlimit:2;">
    <g transform="matrix(1,0,0,1,-415,-613)">
        <g id="ps" transform="matrix(0.789591,0,0,0.891647,380.742,447.635)">
            <rect x="43.855" y="186.286" width="101.318" height="89.722" style="fill:none;"/>
            <clipPath id="_clip1">
                <rect x="43.855" y="186.286" width="101.318" height="89.722"/>
            </clipPath>
            <g clip-path="url(#_clip1)">
                <g transform="matrix(2.41234,0,0,2.13623,-2243.64,-1276.45)">
                    <g transform="matrix(1,0,0,1,945.247,681.727)">
                        <path d="M3,18.2C3,12.88 3,10.219 4.035,8.187C4.946,6.4 6.4,4.946 8.187,4.035C10.219,3 12.88,3 18.2,3L29.8,3C35.121,3 37.781,3 39.813,4.035C41.6,4.946 43.054,6.4 43.965,8.187C45,10.219 45,12.88 45,18.2L45,29.8C45,35.121 45,37.781 43.965,39.813C43.054,41.6 41.6,43.054 39.813,43.965C37.781,45 35.121,45 29.8,45L18.2,45C12.88,45 10.219,45 8.187,43.965C6.4,43.054 4.946,41.6 4.035,39.813C3,37.781 3,35.121 3,29.8L3,18.2Z" style="fill:rgb(18,18,18);fill-rule:nonzero;"/>
                    </g>
                    <g transform="matrix(1,0,0,1,945.247,681.727)">
                        <path d="M12,33.774L12,15.305C12,15.18 12.053,15.108 12.175,15.108C13.983,15.108 15.791,15 17.6,15C20.535,15 23.714,16.004 24.828,19.074C25.09,19.828 25.23,20.6 25.23,21.408C25.23,22.951 24.88,24.226 24.18,25.231C22.225,28.039 18.836,27.995 15.798,27.995L15.798,33.756C15.821,33.927 15.676,34.008 15.535,34.008L12.21,34.008C12.07,34.008 12,33.936 12,33.774ZM15.815,18.572L15.815,24.603C17.02,24.691 18.28,24.7 19.438,24.315C20.715,23.947 21.415,22.841 21.415,21.515C21.451,20.386 20.835,19.302 19.788,18.895C18.644,18.419 17.049,18.391 15.815,18.572Z" style="fill:rgb(242,242,242);fill-rule:nonzero;"/>
                    </g>
                    <g transform="matrix(1,0,0,1,945.247,681.727)">
                        <path d="M36.145,23.411C35.616,23.132 35.052,22.928 34.469,22.804C33.719,22.628 30.765,22.011 30.764,23.555C30.79,24.418 32.159,24.841 32.764,25.087C34.888,25.816 37.291,27.12 37.244,29.74C37.309,33.001 34.149,34.305 31.44,34.305C30.029,34.32 28.56,34.102 27.27,33.496C27.147,33.431 27.067,33.292 27.073,33.15L27.073,30.029C27.059,29.903 27.193,29.794 27.298,29.884C28.563,30.649 30.061,31.02 31.524,31.04C32.17,31.04 33.45,30.977 33.44,30.029C33.44,29.118 31.909,28.699 31.299,28.468C30.414,28.152 29.575,27.715 28.805,27.168C27.729,26.4 27.054,25.17 27.073,23.816C27.066,20.744 29.975,19.366 32.595,19.365C33.82,19.355 35.135,19.446 36.275,19.943C36.439,19.992 36.473,20.164 36.472,20.319L36.472,23.238C36.482,23.419 36.281,23.481 36.145,23.411Z" style="fill:rgb(242,242,242);fill-rule:nonzero;"/>
                    </g>
                </g>
            </g>
        </g>
    </g>
</svg>
